<svg xmlns="http://www.w3.org/2000/svg" viewBox="0 0 445.3714 430.9714"><defs><style>.a{fill:#fff;}.b{fill:none;stroke:#fff;stroke-miterlimit:10;}</style></defs><title>logo-min</title><path class="a" d="M417.8158,223.93a4.0343,4.0343,0,0,1,6.076,3.9044A201.9015,201.9015,0,0,1,42.8,296a4.04,4.04,0,0,1,4.3435-5.78,543.735,543.735,0,0,0,96.0643,8.5083,542.8329,542.8329,0,0,0,98.2567-8.91A537.34,537.34,0,0,0,417.8158,223.93Z"/><path class="a" d="M190.35,6.2647a7.0136,7.0136,0,0,1,8.051,7.7132,546.25,546.25,0,0,0-2.9883,57.1367,539.9578,539.9578,0,0,0,27.79,171.5765,6.9986,6.9986,0,0,1-5.6094,9.1978,544.7541,544.7541,0,0,1-74.3856,5.0752A542.5984,542.5984,0,0,1,29.6634,245.02a6.98,6.98,0,0,1-5.4284-5.6294,203.6508,203.6508,0,0,1-2.8384-33.9355C21.3966,105.1754,94.5213,21.976,190.35,6.2647Z"/><path class="b" d="M415.5429,230.9239C377.877,254.6406,244.204,258.7347,195.4968,15.5605"/></svg>