<svg id="f7b9ac3a-8ec5-4541-971c-6935f2bffc7c" data-name="black and white" xmlns="http://www.w3.org/2000/svg" viewBox="0 0 2270.0393 545.7659">
  <defs>
    <style>
      .eb2c9cee-578b-4e6e-a668-824f85b9913b {
        fill: rgb(140, 120, 203);
      }

      .bfe9b61f-5028-4e1b-91a9-8c65cfdb578c {
        fill: none;
        stroke: rgb(80, 60, 143);
        stroke-miterlimit: 10;
        stroke-width: 5px;
      }
    </style>
  </defs>
  <title>logo</title>
  <g>
    <path class="eb2c9cee-578b-4e6e-a668-824f85b9913b" d="M15.4306,437.85V354.649a8.1435,8.1435,0,0,1,8.6358-8.1045Q50.8411,348.0451,64,335.9183q15.1963-13.9947,15.1959-58.1038V36.2445a8.13,8.13,0,0,1,8.1295-8.13h280.52a8.13,8.13,0,0,1,8.13,8.13v400.899a8.13,8.13,0,0,1-8.13,8.13h-90.415a8.13,8.13,0,0,1-8.1295-8.13V139.3421a8.13,8.13,0,0,0-8.13-8.1295H193.9993a8.13,8.13,0,0,0-8.13,8.1295v143.24q0,51.2606-14.6011,86.7087-14.61,35.4612-39.928,52.1448a146.2638,146.2638,0,0,1-53.9326,22.05A207.442,207.442,0,0,1,22.96,445.9709,8.1591,8.1591,0,0,1,15.4306,437.85Z"/>
    <path class="eb2c9cee-578b-4e6e-a668-824f85b9913b" d="M1127.8166,351.71h34.3964a8.13,8.13,0,0,1,8.13,8.13v157.16a8.13,8.13,0,0,1-8.13,8.13h-79.092a8.13,8.13,0,0,1-8.13-8.13V453.4025a8.13,8.13,0,0,0-8.13-8.1295H851.3a8.13,8.13,0,0,1-8.13-8.13V155.4327a8.13,8.13,0,0,1,8.13-8.13h82.6675a8.13,8.13,0,0,1,8.13,8.13V343.58a8.13,8.13,0,0,0,8.13,8.1295h62.4057a8.13,8.13,0,0,0,8.13-8.1295V155.4327a8.13,8.13,0,0,1,8.13-8.13h82.6666a8.13,8.13,0,0,1,8.13,8.13V343.58A8.13,8.13,0,0,0,1127.8166,351.71Z"/>
    <path class="eb2c9cee-578b-4e6e-a668-824f85b9913b" d="M1536.846,155.4327V437.1435a8.13,8.13,0,0,1-8.13,8.13h-79.092a8.13,8.13,0,0,1-8.13-8.13V329.2688a8.13,8.13,0,0,0-14.9624-4.4045L1380.13,396.8524a8.13,8.13,0,0,1-6.833,3.725h-1.8547a8.1293,8.1293,0,0,1-6.84-3.7355l-45.8007-71.2927a8.13,8.13,0,0,0-14.9692,4.394v107.2a8.13,8.13,0,0,1-8.13,8.13h-79.6885a8.13,8.13,0,0,1-8.13-8.13V155.4327a8.13,8.13,0,0,1,8.13-8.13H1299.38a8.13,8.13,0,0,1,6.8507,3.7527l59.3143,92.84a8.13,8.13,0,0,0,13.6841.027l59.8653-92.8943a8.1294,8.1294,0,0,1,6.8334-3.7258h82.7891A8.13,8.13,0,0,1,1536.846,155.4327Z"/>
    <path class="eb2c9cee-578b-4e6e-a668-824f85b9913b" d="M1811.96,147.3032h82.6675a8.13,8.13,0,0,1,8.13,8.13V437.1435a8.13,8.13,0,0,1-8.13,8.13H1811.96a8.13,8.13,0,0,1-8.13-8.13h0a8.1258,8.1258,0,0,0-13.2741-6.2789q-28.0934,22.752-71.35,22.7525-59.5986,0-99.8194-44.9939-40.2271-44.99-40.2271-112.3346,0-67.3366,40.2271-112.3346,40.2245-44.9889,99.8194-44.9939,43.2521,0,71.35,22.752a8.1258,8.1258,0,0,0,13.2742-6.2788v-.0006A8.13,8.13,0,0,1,1811.96,147.3032ZM1695.965,343.3685q17.2764,17.8752,45.29,17.8766,28.0056,0,45.2921-17.8766,17.2764-17.8794,17.2828-47.08,0-29.1924-17.2828-47.079-17.2927-17.8792-45.2921-17.8784-28.0166,0-45.29,17.8784-17.2929,17.8781-17.2828,47.079Q1678.6822,325.4945,1695.965,343.3685Z"/>
    <path class="eb2c9cee-578b-4e6e-a668-824f85b9913b" d="M2154.6187,147.3032h82.6675a8.13,8.13,0,0,1,8.13,8.13V437.1435a8.13,8.13,0,0,1-8.13,8.13h-82.6675a8.13,8.13,0,0,1-8.13-8.13V350.9014a8.13,8.13,0,0,0-8.13-8.13h-71.3426a8.13,8.13,0,0,0-8.13,8.13v86.2421a8.13,8.13,0,0,1-8.13,8.13h-82.6675a8.13,8.13,0,0,1-8.13-8.13V155.4327a8.13,8.13,0,0,1,8.13-8.13h82.6675a8.13,8.13,0,0,1,8.13,8.13v86.243a8.13,8.13,0,0,0,8.13,8.13H2138.36a8.13,8.13,0,0,0,8.13-8.13v-86.243A8.13,8.13,0,0,1,2154.6187,147.3032Z"/>
  </g>
  <path class="eb2c9cee-578b-4e6e-a668-824f85b9913b" d="M739.6056,312.294a3.0789,3.0789,0,0,1,4.637,2.98,154.085,154.085,0,0,1-290.8374,52.0214,3.0832,3.0832,0,0,1,3.3149-4.4111,414.9652,414.9652,0,0,0,73.3133,6.4933,414.27,414.27,0,0,0,74.9865-6.8A410.0777,410.0777,0,0,0,739.6056,312.294Z"/>
  <path class="eb2c9cee-578b-4e6e-a668-824f85b9913b" d="M566.011,146.1783a5.3526,5.3526,0,0,1,6.1442,5.8865,416.8811,416.8811,0,0,0-2.2806,43.605,412.0794,412.0794,0,0,0,21.2085,130.9419,5.3411,5.3411,0,0,1-4.281,7.0195,415.74,415.74,0,0,1-56.7687,3.8732,414.0934,414.0934,0,0,1-86.6538-9.1152,5.3271,5.3271,0,0,1-4.1428-4.2963A154.2444,154.2444,0,0,1,566.011,146.1783Z"/>
  <path class="bfe9b61f-5028-4e1b-91a9-8c65cfdb578c" d="M741.1408,315.8179c-29.3714,18.494-133.608,21.6865-171.5892-167.9377"/>
</svg>
